<svg width="156" height="128" xmlns="http://www.w3.org/2000/svg" xmlns:xlink="http://www.w3.org/1999/xlink">
 <g>
  <title>background</title>
  <rect fill="none" id="canvas_background" height="402" width="582" y="-1" x="-1"/>
 </g>
 <g>
  <title>Layer 1</title>
  <defs>
   <path id="SVGID_1_" d="m13.9,29.3c0,-3.3 2.7,-6 6,-6l116,0c3.3,0 6,2.7 6,6l0,68c0,3.3 -2.7,6 -6,6l-116,0c-3.3,0 -6,-2.7 -6,-6l0,-68z"/>
  </defs>
  <clipPath id="SVGID_2_">
   <use id="svg_3" xlink:href="#SVGID_1_"/>
  </clipPath>
  <path fill="#f7f7f7" clip-path="url(#SVGID_2_)" id="svg_4" d="m13.9,29.3c0,-3.3 2.7,-6 6,-6l116,0c3.3,0 6,2.7 6,6l0,68c0,3.3 -2.7,6 -6,6l-116,0c-3.3,0 -6,-2.7 -6,-6l0,-68z" class="st0"/>
  <defs>
   <path id="SVGID_3_" d="m140.5,72.6l-6.4,0c-0.6,0 -1.1,0 -1.4,0.3c-0.4,0.2 -0.5,0.6 -0.5,1.1c0,0.6 0.3,0.9 0.8,1.1c0.4,0.1 0.8,0.2 1.3,0.2l1.9,0c1.9,0.1 3.2,0.4 4,1.2c0.1,0.1 0.2,0.2 0.3,0.4l0,-4.3zm0,9.7c-0.9,1.3 -2.5,1.9 -4.8,1.9l-6.8,0l0,-3.2l6.8,0c0.7,0 1.1,-0.1 1.4,-0.4c0.2,-0.2 0.4,-0.5 0.4,-1c0,-0.4 -0.2,-0.8 -0.4,-1c-0.3,-0.2 -0.6,-0.3 -1.2,-0.3c-3.3,-0.1 -7.4,0.1 -7.4,-4.6c0,-2.1 1.4,-4.4 5,-4.4l7,0l0,-2.9l-6.5,0c-2,0 -3.4,0.5 -4.4,1.2l0,-1.2l-9.6,0c-1.5,0 -3.3,0.4 -4.2,1.2l0,-1.2l-17.2,0l0,1.2c-1.4,-1 -3.7,-1.2 -4.7,-1.2l-11.4,0l0,1.2c-1.1,-1 -3.5,-1.2 -5,-1.2l-12.6,0l-2.9,3.3l-2.7,-3.1l-19,0l0,20.5l18.6,0l3,-3.2l2.8,3.2l11.5,0l0,-4.8l1.1,0c1.5,0 3.3,0 4.9,-0.7l0,5.5l9.5,0l0,-5.3l0.5,0c0.6,0 0.6,0 0.6,0.6l0,4.7l28.7,0c1.8,0 3.7,-0.5 4.8,-1.3l0,1.3l9.1,0c1.9,0 3.7,-0.3 5.2,-0.9l0,-3.9l-0.1,0zm-14.1,-5.9c0.7,0.7 1.1,1.6 1.1,3.1c0,3.2 -2,4.6 -5.5,4.6l-6.9,0l0,-3.1l6.8,0c0.7,0 1.1,-0.1 1.4,-0.4c0.2,-0.2 0.4,-0.5 0.4,-1c0,-0.4 -0.2,-0.8 -0.4,-1c-0.3,-0.2 -0.6,-0.3 -1.3,-0.3c-3.3,-0.1 -7.4,0.1 -7.4,-4.6c0,-2.1 1.3,-4.4 5,-4.4l7,0l0,3.1l-6.4,0c-0.7,0 -1.1,0 -1.4,0.3c-0.4,0.2 -0.5,0.6 -0.5,1.1c0,0.6 0.3,0.9 0.8,1.1c0.4,0.1 0.8,0.2 1.4,0.2l1.9,0c2,0.2 3.2,0.5 4,1.3zm-31.7,-0.9c-0.5,0.3 -1.1,0.3 -1.7,0.3l-4.3,0l0,-3.3l4.3,0c0.6,0 1.3,0 1.7,0.3c0.5,0.2 0.7,0.7 0.7,1.3c0.1,0.6 -0.2,1.1 -0.7,1.4zm2.2,1.8c0.8,0.3 1.4,0.8 1.7,1.2c0.5,0.7 0.6,1.4 0.6,2.7l0,2.9l-3.5,0l0,-1.8c0,-0.9 0.1,-2.2 -0.6,-2.9c-0.5,-0.5 -1.3,-0.7 -2.6,-0.7l-3.8,0l0,5.4l-3.5,0l0,-14.6l8.1,0c1.8,0 3.1,0.1 4.2,0.7c1.1,0.7 1.8,1.6 1.8,3.3c0,2.3 -1.5,3.5 -2.4,3.8zm4.4,-7.8l11.7,0l0,3.1l-8.2,0l0,2.7l8,0l0,3l-8,0l0,2.9l8.2,0l0,3.1l-11.7,0l0,-14.8zm-23.7,6.8l-4.6,0l0,-3.7l4.6,0c1.3,0 2.1,0.5 2.1,1.8c0.1,1.2 -0.8,1.9 -2.1,1.9zm-8.1,6.6l-5.4,-6l5.4,-5.8l0,11.8zm-13.9,-1.8l-8.6,0l0,-2.9l7.7,0l0,-3l-7.7,0l0,-2.7l8.8,0l3.8,4.3l-4,4.3zm27.9,-6.8c0,4.1 -3,4.9 -6.1,4.9l-4.4,0l0,4.9l-6.8,0l-4.3,-4.9l-4.5,4.9l-13.9,0l0,-14.6l14.1,0l4.3,4.8l4.5,-4.8l11.2,0c2.8,0 5.9,0.8 5.9,4.8z"/>
  </defs>
  <clipPath id="SVGID_4_">
   <use id="svg_6" xlink:href="#SVGID_3_"/>
  </clipPath>
  <rect fill="#246ea9" clip-path="url(#SVGID_4_)" id="svg_7" y="61.6" x="35.3" width="110.2" height="30.5" class="st1"/>
  <defs>
   <path id="SVGID_5_" d="m26.7,52.5l-2.4,-5.9l-2.4,5.9l4.8,0zm53,-2.3c-0.5,0.3 -1.1,0.3 -1.7,0.3l-4.3,0l0,-3.3l4.3,0c0.6,0 1.3,0 1.7,0.3c0.5,0.2 0.7,0.7 0.7,1.3c0,0.7 -0.3,1.2 -0.7,1.4zm30.5,2.3l-2.4,-5.9l-2.4,5.9l4.8,0zm-56.8,6.4l-3.6,0l0,-11.5l-5.1,11.5l-3.1,0l-5.1,-11.5l0,11.5l-7.1,0l-1.4,-3.3l-7.3,0l-1.4,3.3l-3.8,0l6.3,-14.7l5.2,0l6,13.9l0,-13.9l5.7,0l4.6,10l4.2,-10l5.8,0l0,14.7l0.1,0zm14.3,0l-11.7,0l0,-14.7l11.7,0l0,3.1l-8.2,0l0,2.6l8,0l0,3l-8,0l0,2.9l8.2,0l0,3.1zm16.6,-10.8c0,2.3 -1.6,3.6 -2.5,3.9c0.8,0.3 1.4,0.8 1.7,1.2c0.5,0.7 0.6,1.4 0.6,2.7l0,2.9l-3.5,0l0,-1.9c0,-0.9 0.1,-2.2 -0.6,-2.9c-0.5,-0.5 -1.3,-0.6 -2.6,-0.6l-3.8,0l0,5.3l-3.5,0l0,-14.5l8.1,0c1.8,0 3.1,0.1 4.3,0.7c1.1,0.6 1.8,1.6 1.8,3.2zm2,10.8l3.6,0l0,-14.7l-3.6,0l0,14.7zm45.2,0l-5,0l-6.7,-11l0,11l-7.2,0l-1.4,-3.3l-7.2,0l-1.3,3.3l-4.1,0c-1.7,0 -3.9,-0.4 -5.1,-1.6c-1.2,-1.3 -1.9,-2.9 -1.9,-5.6c0,-2.2 0.4,-4.2 1.9,-5.7c1.1,-1.2 2.9,-1.7 5.3,-1.7l3.4,0l0,3.1l-3.3,0c-1.3,0 -2,0.2 -2.7,0.9c-0.6,0.6 -1,1.8 -1,3.3c0,1.6 0.3,2.7 1,3.5c0.5,0.6 1.5,0.8 2.4,0.8l1.6,0l5,-11.6l5.3,0l5.9,13.9l0,-14l5.4,0l6.2,10.2l0,-10.2l3.6,0l0,14.7l-0.1,0zm-116.1,2.9l6,0l1.4,-3.3l3,0l1.3,3.3l11.9,0l0,-2.5l1.1,2.5l6.1,0l1,-2.5l0,2.5l29.4,0l0,-5.4l0.6,0c0.4,0 0.5,0.1 0.5,0.7l0,4.7l15.2,0l0,-1.3c1.2,0.7 3.1,1.3 5.6,1.3l6.4,0l1.4,-3.3l3,0l1.3,3.3l12.3,0l0,-3.1l1.9,3.1l9.9,0l0,-20.5l-9.8,0l0,2.4l-1.4,-2.4l-10,0l0,2.4l-1.3,-2.4l-13.5,0c-2.3,0 -4.3,0.3 -5.9,1.2l0,-1.2l-9.3,0l0,1.2c-1,-0.9 -2.4,-1.2 -4,-1.2l-34.1,0l-2.3,5.3l-2.3,-5.3l-10.8,0l0,2.4l-1.2,-2.4l-9.2,0l-4.2,9.7l0,10.8z"/>
  </defs>
  <clipPath id="SVGID_6_">
   <use id="svg_10" xlink:href="#SVGID_5_"/>
  </clipPath>
  <rect fill="#246ea9" clip-path="url(#SVGID_6_)" id="svg_11" y="36.3" x="10.4" width="129.2" height="30.5" class="st2"/>
  <rect fill="#ffffff" id="svg_12" y="44.060714" x="86.3" width="3.6" height="14.7" class="st3"/>
 </g>
</svg>