<svg width="480.00000000000006" height="301" xmlns="http://www.w3.org/2000/svg">
 <title/>
 <desc/>

 <g>
  <title>background</title>
  <rect fill="none" id="canvas_background" height="402" width="582" y="-1" x="-1"/>
 </g>
 <g>
  <title>Layer 1</title>
  <path id="Rectangle-2" fill="#ffffff" d="m444,0c-24,0.00001 -278.09766,0 -420,0c-12,0 -24,12.0056 -24,24.0112c0,72.18014 0,216.10077 0,240.11197c0,24.0112 12,36.0168 36,36.0168c133.86963,0 384,0 408,0c24,0 36,-12.0056 36,-36.0168c0,-24.0112 -0.00001,-148.35336 0,-228.10637c0,-24.0112 -12,-36.0168 -36,-36.0168z"/>
  <path id="Shape" fill="#4186CD" d="m254.42011,186.33257c36.37707,0.17434 69.57989,-29.71967 69.57989,-66.08692c0,-39.76961 -33.20282,-67.25887 -69.57989,-67.24565l-31.30673,0c-36.8128,-0.01322 -67.11338,27.48424 -67.11338,67.24565c0,36.37519 30.30058,66.26152 67.11338,66.08692l31.30673,0l0,0z"/>
  <path id="Shape" fill="#FFFFFF" d="m222.66148,58.33333c-33.87235,0.01064 -61.32017,27.45983 -61.32815,61.33759c0.00798,33.87191 27.45554,61.31845 61.32815,61.32908c33.88033,-0.01063 61.33373,-27.45717 61.33852,-61.32908c-0.00505,-33.87776 -27.45819,-61.32695 -61.33852,-61.33759l0,0zm-37.32815,60.00422l0,0c0.03069,-16.42827 9.97592,-30.43728 24,-36.00422l0,72c-14.02408,-5.56376 -23.96957,-19.56513 -24,-35.99578l0,0zm50.66667,35.99578l0,0l0,-72c14.02023,5.55208 23.97444,19.56546 24,35.9975c-0.02556,16.43704 -9.97977,30.43988 -24,36.0025l0,0z"/>
  <path id="Shape" d="m105.67395,208.45112c0,-5.4979 -2.89639,-5.13584 -5.67372,-5.19557l0,-1.58888c2.40686,0.11761 4.8743,0.11761 7.28606,0.11761c2.59325,0 6.11384,-0.11761 10.68501,-0.11761c15.98826,0 24.69537,10.57102 24.69537,21.39548c0,6.05343 -3.57861,21.27118 -25.43863,21.27118c-3.14779,0 -6.05326,-0.12014 -8.95408,-0.12014c-2.77732,0 -5.4964,0.06019 -8.27396,0.12014l0,-1.58657c3.70256,-0.3692 5.49664,-0.4912 5.67371,-4.64904l0,-29.6466l0.00024,0l0,0zm4.99272,28.15231l0,0c0,4.53447 3.37894,5.06324 6.38502,5.06324c13.26103,0 17.61498,-9.59994 17.61498,-18.37563c0,-11.00849 -7.36698,-18.95771 -19.21043,-18.95771c-2.51973,0 -3.67769,0.1733 -4.78934,0.23572l-0.00023,32.03438l0,0z"/>
  <path id="Shape" d="m142.66667,242.81676l1.18046,0c1.74247,0 2.99136,0 2.99136,-1.93061l0,-15.80829c0,-2.56409 -0.93379,-2.92089 -3.24039,-4.08089l0,-0.93548c2.92764,-0.82322 6.42223,-1.92378 6.66655,-2.09987c0.43974,-0.23332 0.81127,-0.29495 1.12403,-0.29495c0.30828,0 0.43738,0.35218 0.43738,0.82102l0,22.39846c0,1.93061 1.37093,1.93061 3.11576,1.93061l1.05818,0l0,1.51657c-2.1213,0 -4.30328,-0.11644 -6.54192,-0.11644c-2.24335,0 -4.48904,0.05723 -6.79118,0.11644l0,-1.51657l-0.00023,0l0,0zm5.3322,-35.81676l0,0c-1.41687,0 -2.66554,-1.30441 -2.66554,-2.71795c0,-1.36205 1.30618,-2.61538 2.66554,-2.61538c1.41091,0 2.6678,1.14687 2.6678,2.61538c0,1.46872 -1.20123,2.71795 -2.6678,2.71795l0,0z"/>
  <path id="Shape" d="m162.52307,225.42564c0,-2.1571 -0.64619,-2.7382 -3.38637,-3.84757l0,-1.10695c2.51112,-0.81661 4.9034,-1.576 7.70951,-2.80423c0.17439,0 0.34613,0.11886 0.34613,0.5833l0,3.79452c3.33588,-2.3902 6.19975,-4.37804 10.11943,-4.37804c4.9605,0 6.71299,3.61843 6.71299,8.16816l0,15.05154c0,1.93039 1.28532,1.93039 2.92339,1.93039l1.05185,0l0,1.51657c-2.05056,0 -4.09407,-0.11644 -6.19291,-0.11644c-2.10568,0 -4.21136,0.05723 -6.31219,0.11644l0,-1.51657l1.04942,0c1.64006,0 2.80236,0 2.80236,-1.93039l0,-15.10657c0,-3.3303 -2.03491,-4.96134 -5.3708,-4.96134c-1.86713,0 -4.84806,1.5168 -6.78376,2.80204l0,17.26543c0,1.93061 1.29171,1.93061 2.93022,1.93061l1.04943,0l0,1.51657c-2.04395,0 -4.09209,-0.11666 -6.19512,-0.11666c-2.10127,0 -4.20871,0.05745 -6.30998,0.11666l0,-1.51657l1.05383,0c1.63586,0 2.80213,0 2.80213,-1.93061l0,-15.46029l0.00044,0l0,0z"/>
  <path id="Shape" d="m193.10871,228.91752c-0.1327,0.56055 -0.1327,1.49105 0,3.60571c0.37595,5.9009 4.27974,10.74704 9.37809,10.74704c3.51386,0 6.26426,-1.86381 8.62233,-4.16134l0.89087,0.87212c-2.93801,3.78858 -6.57519,7.01895 -11.806,7.01895c-10.15143,0 -12.194,-9.57225 -12.194,-13.5458c0,-12.18182 8.4246,-15.78753 12.88979,-15.78753c5.17325,0 10.72968,3.16754 10.78989,9.75511c0,0.37745 0,0.74553 -0.06021,1.12298l-0.57802,0.37276l-17.93274,0l0,0zm11.71672,-3.25085l0,0c1.64643,0 1.84124,-0.59334 1.84124,-1.13852c0,-2.32537 -2.04552,-4.19482 -5.74493,-4.19482c-4.02327,0 -6.79621,2.04831 -7.58841,5.33334l11.4921,0l0,0z"/>
  <path id="Shape" d="m212,242.81677l1.47896,0c1.52812,0 2.62308,0 2.62308,-1.93059l0,-16.39167c0,-1.80711 -2.022,-2.15929 -2.84617,-2.62592l0,-0.87164c3.99691,-1.81152 6.18828,-3.33028 6.68609,-3.33028c0.32429,0 0.48541,0.17609 0.48541,0.76158l0,5.24965l0.11588,0c1.36514,-2.27375 3.66847,-6.01123 7.00439,-6.01123c1.36927,0 3.11903,0.9905 3.11903,3.09256c0,1.57599 -1.03693,2.9803 -2.56938,2.9803c-1.70411,0 -1.70411,-1.40431 -3.61684,-1.40431c-0.93157,0 -3.99483,1.34268 -3.99483,4.84464l0,13.70632c0,1.93037 1.09248,1.93037 2.62721,1.93037l3.06326,0l0,1.51678c-3.01162,-0.05965 -5.30235,-0.11666 -7.66124,-0.11666c-2.24302,0 -4.54429,0.05723 -6.51464,0.11666l0,-1.51656l-0.00021,0l0,0z"/>
  <path id="Shape" d="m234.43744,237.42736c0.79697,4.10269 3.2426,7.58436 7.71331,7.58436c3.60263,0 4.95107,-2.23656 4.95107,-4.41216c0,-7.33327 -13.33894,-4.97247 -13.33894,-14.97601c0,-3.48143 2.75716,-7.95688 9.4869,-7.95688c1.95627,0 4.58619,0.56265 6.97177,1.80753l0.4344,6.33245l-1.4108,0c-0.60991,-3.91069 -2.75047,-6.14936 -6.67201,-6.14936c-2.44794,0 -4.77117,1.43032 -4.77117,4.10036c0,7.277 14.19803,5.03342 14.19803,14.78845c0,4.10035 -3.2449,8.4539 -10.52843,8.4539c-2.44794,0 -5.32334,-0.86977 -7.4639,-2.10996l-0.67434,-7.14783l1.10411,-0.31485l0,0z"/>
  <path id="Shape" d="m305.27279,213.87441l-1.48788,0c-1.13408,-7.28189 -6.08542,-10.21109 -12.76298,-10.21109c-6.86435,0 -16.82555,4.79172 -16.82555,19.73394c0,12.58593 8.59485,21.61055 17.77756,21.61055c5.90312,0 10.7982,-4.23289 11.99102,-10.77227l1.36837,0.37114l-1.36837,9.09039c-2.50515,1.62316 -9.2455,3.30293 -13.18632,3.30293c-13.95378,0 -22.77864,-9.40281 -22.77864,-23.41247c0,-12.76446 10.91321,-21.92086 22.60287,-21.92086c4.83003,0 9.48204,1.6255 14.07554,3.30739l0.59438,8.90035l0,0z"/>
  <path id="Shape" d="m308.00047,242.79112l1.18065,0c1.74745,0 2.99866,0 2.99866,-1.96325l0,-33.04216c0,-3.8589 -0.93605,-3.97775 -3.30699,-4.62911l0,-0.94906c2.493,-0.76976 5.11065,-1.83991 6.42089,-2.55372c0.67946,-0.35366 1.18277,-0.65382 1.36621,-0.65382c0.38124,0 0.50566,0.35836 0.50566,0.8349l0,40.99297c0,1.96325 1.3688,1.96325 3.11625,1.96325l1.05153,0l0,1.54221c-2.10988,0 -4.2922,-0.11863 -6.53848,-0.11863c-2.24112,0 -4.48506,0.05842 -6.79485,0.11863l0,-1.54221l0.00047,0l0,0z"/>
  <path id="Shape" d="m346.64789,240.24526c0,1.05449 0.64715,1.11173 1.65134,1.11173c0.71164,0 1.59555,-0.05724 2.36744,-0.05724l0,1.2284c-2.54574,0.23116 -7.39509,1.45736 -8.52001,1.80518l-0.2968,-0.17633l0,-4.72186c-3.54345,2.85724 -6.26838,4.89819 -10.47037,4.89819c-3.19311,0 -6.50448,-2.04095 -6.50448,-6.93915l0,-14.94335c0,-1.51679 -0.23454,-2.97656 -3.54168,-3.26693l0,-1.10953c2.13134,-0.05723 6.85328,-0.40748 7.62517,-0.40748c0.65629,0 0.65629,0.40748 0.65629,1.69092l0,15.05101c0,1.75476 0,6.77162 5.14124,6.77162c2.01062,0 4.67061,-1.51679 7.1523,-3.55312l0,-15.70506c0,-1.16235 -2.83651,-1.80297 -4.96071,-2.38877l0,-1.05009c5.31552,-0.35223 8.6336,-0.81673 9.22071,-0.81673c0.47934,0 0.47934,0.40726 0.47934,1.05228l0,21.52631l0.00022,0l0,0z"/>
  <path id="Shape" d="m359.0063,222.35403c2.50451,-2.09456 5.88833,-4.43738 9.33884,-4.43738c7.27231,0 11.65486,6.22954 11.65486,12.94001c0,8.07074 -6.01415,16.14334 -14.98263,16.14334c-4.63536,0 -7.07839,-1.48068 -8.71022,-2.155l-1.87756,1.41327l-1.31233,-0.67386c0.55577,-3.63545 0.87481,-7.21046 0.87481,-10.96678l0,-26.49414c0,-4.00713 -0.946,-4.13056 -3.3254,-4.80698l0,-0.98557c2.51421,-0.79938 5.1391,-1.9107 6.45663,-2.6522c0.69058,-0.36726 1.18935,-0.67874 1.38352,-0.67874c0.37366,0 0.49877,0.37215 0.49877,0.86702l0,22.48678l0.00071,0l0,0.00023zm-0.3394,15.72982l0,0c0,2.32797 2.25642,6.24948 6.4619,6.24948c6.71527,0 9.53787,-6.43193 9.53787,-11.8821c0,-6.60976 -5.14059,-12.1179 -10.03751,-12.1179c-2.32769,0 -4.26965,1.47115 -5.96249,2.88202l0,14.8685l0.00023,0l0,0z"/>
 </g>
</svg>